<svg width="10" height="8" viewBox="0 0 10 8" fill="none" xmlns="http://www.w3.org/2000/svg">
<path d="M9.69116 0.524201C9.72721 0.562435 9.75537 0.607397 9.77404 0.656518C9.7927 0.705639 9.80151 0.757957 9.79995 0.810482C9.79839 0.863008 9.78649 0.91471 9.76494 0.962637C9.74339 1.01056 9.71262 1.05377 9.67436 1.0898L3.33036 7.069C3.23901 7.15502 3.1176 7.20185 2.99215 7.19946C2.8667 7.19706 2.74717 7.14564 2.65916 7.0562L0.515161 4.8802C0.442647 4.80428 0.402888 4.70289 0.404464 4.59792C0.40604 4.49294 0.448823 4.3928 0.523583 4.31909C0.598344 4.24538 0.699086 4.20401 0.804073 4.20392C0.909059 4.20383 1.00987 4.24502 1.08476 4.3186L3.00956 6.2722L9.12556 0.507402C9.16379 0.471353 9.20876 0.443191 9.25788 0.424525C9.307 0.405858 9.35931 0.397054 9.41184 0.398614C9.46437 0.400174 9.51607 0.412068 9.564 0.433617C9.61192 0.455166 9.65513 0.485947 9.69116 0.524201Z" fill="currentColor"/>
</svg>
