<svg width="11" height="6" viewBox="0 0 11 6" fill="none" xmlns="http://www.w3.org/2000/svg">
<path d="M10.1031 0.396893C10.0567 0.35033 10.0015 0.313387 9.94074 0.288181C9.87999 0.262974 9.81487 0.25 9.74911 0.25C9.68334 0.25 9.61822 0.262974 9.55747 0.288181C9.49673 0.313387 9.44155 0.35033 9.39511 0.396893L5.2491 4.54389L1.1031 0.396893C1.00922 0.303006 0.88188 0.250261 0.749104 0.250261C0.616328 0.250261 0.488991 0.303006 0.395104 0.396893C0.301217 0.49078 0.248472 0.618117 0.248472 0.750893C0.248472 0.883669 0.301217 1.01101 0.395104 1.10489L4.8951 5.60489C4.94155 5.65146 4.99673 5.6884 5.05747 5.71361C5.11822 5.73881 5.18334 5.75179 5.2491 5.75179C5.31487 5.75179 5.37999 5.73881 5.44074 5.71361C5.50148 5.6884 5.55666 5.65146 5.60311 5.60489L10.1031 1.10489C10.1497 1.05845 10.1866 1.00327 10.2118 0.942527C10.237 0.881782 10.25 0.816661 10.25 0.750894C10.25 0.685126 10.237 0.620005 10.2118 0.55926C10.1866 0.498515 10.1497 0.443339 10.1031 0.396893Z" fill="currentColor"/>
</svg>
