<svg width="6" height="10" viewBox="0 0 6 10" fill="none" xmlns="http://www.w3.org/2000/svg">
<path d="M5.35489 0.146894C5.40146 0.193339 5.4384 0.248515 5.46361 0.30926C5.48881 0.370005 5.50179 0.435127 5.50179 0.500894C5.50179 0.566661 5.48881 0.631783 5.46361 0.692528C5.4384 0.753273 5.40146 0.808448 5.35489 0.854894L1.20789 5.0009L5.35489 9.1469C5.44878 9.24078 5.50152 9.36812 5.50152 9.5009C5.50152 9.63367 5.44878 9.76101 5.35489 9.8549C5.26101 9.94878 5.13367 10.0015 5.00089 10.0015C4.86812 10.0015 4.74078 9.94878 4.64689 9.8549L0.146894 5.3549C0.10033 5.30845 0.0633873 5.25327 0.0381808 5.19253C0.0129744 5.13178 0 5.06666 0 5.0009C0 4.93513 0.0129744 4.87001 0.0381808 4.80926C0.0633873 4.74852 0.10033 4.69334 0.146894 4.64689L4.64689 0.146894C4.69334 0.100331 4.74852 0.0633878 4.80926 0.0381813C4.87001 0.0129749 4.93513 0 5.00089 0C5.06666 0 5.13178 0.0129749 5.19253 0.0381813C5.25327 0.0633878 5.30845 0.100331 5.35489 0.146894Z" fill="currentColor"/>
</svg>
