<svg width="6" height="11" viewBox="0 0 6 11" fill="none" xmlns="http://www.w3.org/2000/svg">
<path d="M0.646039 0.146894C0.599476 0.193339 0.562533 0.248515 0.537326 0.30926C0.51212 0.370005 0.499146 0.435127 0.499146 0.500894C0.499146 0.566661 0.51212 0.631783 0.537326 0.692528C0.562533 0.753273 0.599476 0.808448 0.646039 0.854894L4.79304 5.0009L0.646039 9.1469C0.552152 9.24078 0.499407 9.36812 0.499407 9.5009C0.499407 9.63367 0.552152 9.76101 0.646039 9.8549C0.739926 9.94878 0.867263 10.0015 1.00004 10.0015C1.13281 10.0015 1.26015 9.94878 1.35404 9.8549L5.85404 5.3549C5.9006 5.30845 5.93754 5.25327 5.96275 5.19253C5.98796 5.13178 6.00093 5.06666 6.00093 5.0009C6.00093 4.93513 5.98796 4.87001 5.96275 4.80926C5.93754 4.74852 5.9006 4.69334 5.85404 4.64689L1.35404 0.146894C1.30759 0.100331 1.25242 0.0633878 1.19167 0.0381813C1.13093 0.0129749 1.06581 0 1.00004 0C0.934272 0 0.869151 0.0129749 0.808405 0.0381813C0.74766 0.0633878 0.692485 0.100331 0.646039 0.146894Z" fill="currentColor"/>
</svg>
