<svg width="11" height="6" viewBox="0 0 11 6" fill="none" xmlns="http://www.w3.org/2000/svg">
<path d="M10.1031 5.55515C10.0567 5.60082 10.0015 5.63705 9.94074 5.66177C9.87999 5.68649 9.81487 5.69922 9.74911 5.69922C9.68334 5.69922 9.61822 5.68649 9.55747 5.66177C9.49673 5.63705 9.44155 5.60082 9.39511 5.55515L5.2491 1.4879L1.1031 5.55515C1.00922 5.64723 0.88188 5.69896 0.749104 5.69896C0.616328 5.69896 0.488991 5.64723 0.395104 5.55515C0.301217 5.46307 0.248472 5.33818 0.248472 5.20796C0.248472 5.07774 0.301217 4.95285 0.395104 4.86077L4.8951 0.447304C4.94155 0.401636 4.99673 0.365403 5.05747 0.340682C5.11822 0.31596 5.18334 0.303235 5.2491 0.303235C5.31487 0.303235 5.37999 0.31596 5.44074 0.340682C5.50148 0.365403 5.55666 0.401636 5.60311 0.447303L10.1031 4.86077C10.1497 4.90632 10.1866 4.96043 10.2118 5.02001C10.237 5.07959 10.25 5.14346 10.25 5.20796C10.25 5.27246 10.237 5.33633 10.2118 5.39591C10.1866 5.45548 10.1497 5.5096 10.1031 5.55515Z" fill="currentColor"/>
</svg>
